<svg
  height="90"
  viewBox="0 0 350 200"
  xmlns="http://www.w3.org/2000/svg"
  fill="none"
>
  <path
    d="M 30 60 Q 80 50, 110 60 Q 70 100, 40 140 Q 100 130, 110 140"
    stroke="black"
    stroke-width="15"
    stroke-linecap="round"
    stroke-linejoin="round"
  />
  <path
    d="M 140 60 Q 190 50, 220 60 Q 180 100, 150 140 Q 210 130, 220 140"
    stroke="black"
    stroke-width="15"
    stroke-linecap="round"
    stroke-linejoin="round"
  />
  <path
    d="M 250 60 Q 300 50, 330 60 Q 290 100, 260 140 Q 320 130, 330 140"
    stroke="black"
    stroke-width="15"
    stroke-linecap="round"
    stroke-linejoin="round"
  />
  <path
    d="M 30 60 Q 80 50, 110 60 Q 70 100, 40 140 Q 100 130, 110 140"
    stroke="white"
    stroke-width="5"
    stroke-linecap="round"
    stroke-linejoin="round"
  />
  <path
    d="M 140 60 Q 190 50, 220 60 Q 180 100, 150 140 Q 210 130, 220 140"
    stroke="white"
    stroke-width="5"
    stroke-linecap="round"
    stroke-linejoin="round"
  />
  <path
    d="M 250 60 Q 300 50, 330 60 Q 290 100, 260 140 Q 320 130, 330 140"
    stroke="white"
    stroke-width="5"
    stroke-linecap="round"
    stroke-linejoin="round"
  />
</svg>
